<?xml version="1.0" encoding="UTF-8"?>
<svg version="1.1" xmlns="http://www.w3.org/2000/svg" width="235" height="300">
<path d="M0 0 C10.23 0 20.46 0 31 0 C31.33 20.79 31.66 41.58 32 63 C35.63 58.38 39.26 53.76 43 49 C45.32210215 46.15542487 47.64894708 43.31998363 50 40.5 C54.30573456 35.30690508 58.54627191 30.07518499 62.6875 24.75 C66.33182472 20.07220005 70.05188177 15.47061665 73.875 10.9375 C74.31545654 10.41317383 74.75591309 9.88884766 75.2097168 9.34863281 C76.45506038 7.88352272 77.72719771 6.44131973 79 5 C79.60408691 4.12939941 80.20817383 3.25879883 80.83056641 2.36181641 C85.88709406 -1.4062354 91.07814616 -0.69408593 97.21875 -0.62890625 C98.50938354 -0.63131821 99.80001709 -0.63373016 101.12976074 -0.63621521 C103.8568484 -0.63906809 106.58311241 -0.62442464 109.31005859 -0.59692383 C112.79732942 -0.56283963 116.28312834 -0.56886282 119.77046967 -0.5875864 C123.10754153 -0.60072503 126.44418838 -0.58243329 129.78125 -0.56640625 C131.65484192 -0.57384605 131.65484192 -0.57384605 133.56628418 -0.58143616 C134.73099243 -0.56559982 135.89570068 -0.54976349 137.09570312 -0.53344727 C138.62862 -0.5241494 138.62862 -0.5241494 140.19250488 -0.5146637 C143.73075717 0.13396076 145.42219882 1.54186093 148 4 C149.13199695 6.2639939 149.12696704 7.48850231 149.13130188 10.00083923 C149.13731415 11.25586243 149.13731415 11.25586243 149.14344788 12.53623962 C149.1426548 13.91616844 149.1426548 13.91616844 149.1418457 15.32397461 C149.14532013 16.29170807 149.14879456 17.25944153 149.15237427 18.25650024 C149.15974043 20.36433777 149.16508121 22.47218309 149.16866493 24.58003044 C149.175825 27.92276677 149.19149096 31.26535584 149.21000671 34.60804749 C149.26247819 44.11473494 149.31039687 53.62134488 149.32592773 63.12817383 C149.33604582 68.94023439 149.3654745 74.75192907 149.40724754 80.56384468 C149.41951523 82.77363878 149.42468658 84.98348468 149.42244911 87.19331169 C149.12759658 103.08727211 149.12759658 103.08727211 154 118 C154.33699417 118.72690536 154.67398834 119.45381073 155.02119446 120.20274353 C156.32022889 122.58799569 157.50931269 122.96221362 160 124 C160.969375 124.515625 161.93875 125.03125 162.9375 125.5625 C169.858767 128.81125798 177.40810081 129.00870059 184.6875 126.75 C191.28828626 124.27758006 195.51075912 121.23078729 199 115 C201.38673424 109.46308946 201.30602059 104.23703189 201.31884766 98.31298828 C201.33391609 96.71696526 201.33391609 96.71696526 201.34928894 95.08869934 C201.38010357 91.58257573 201.39715154 88.07652843 201.4140625 84.5703125 C201.4327755 82.1350743 201.45234901 79.69984258 201.4727478 77.26461792 C201.52406088 70.86303526 201.56369119 64.46143158 201.60089111 58.05975342 C201.64093579 51.52415775 201.69202606 44.98864946 201.7421875 38.453125 C201.83893716 25.63547196 201.92232412 12.81778283 202 0 C212.56 0 223.12 0 234 0 C234.067952 13.98731003 234.12291772 27.97450926 234.15543652 41.96194744 C234.17104898 48.45784864 234.19220633 54.95363041 234.22631836 61.44946289 C234.2590696 67.72590613 234.2768862 74.00223495 234.28463173 80.2787571 C234.29014702 82.66557426 234.30091657 85.05238562 234.31719017 87.43915367 C234.45600676 108.65495051 233.1058196 125.73653815 218 142 C204.89430185 154.25752144 187.95988234 157.78281117 170.58984375 157.28125 C156.22717549 156.57154434 142.40306399 151.09252476 132 141 C120.7249539 128.09088924 116.72220335 113.50371403 116.68115234 96.66333008 C116.67110672 95.6961203 116.6610611 94.72891052 116.65071106 93.73239136 C116.62015145 90.57810997 116.60292046 87.42391235 116.5859375 84.26953125 C116.5672039 82.0656412 116.54762889 79.86175816 116.5272522 77.65788269 C116.47615655 71.88931428 116.43641064 66.12072268 116.39910889 60.35205078 C116.35892702 54.45274219 116.3078997 48.55352821 116.2578125 42.65429688 C116.16132073 31.10293127 116.07683116 19.55151195 116 8 C114.09429929 10.2168047 112.18948333 12.43435952 110.28515625 14.65234375 C109.75104126 15.27347046 109.21692627 15.89459717 108.66662598 16.5345459 C104.79913906 21.04094461 101.02086098 25.61264679 97.27734375 30.22265625 C94.71795212 33.34397263 92.11371271 36.42419443 89.5 39.5 C85.96145763 43.67290291 82.43073844 47.85154965 78.9375 52.0625 C78.22464844 52.91972656 77.51179688 53.77695312 76.77734375 54.66015625 C75.1520237 56.7998633 73.92709265 58.48808598 73 61 C73.56696909 62.95239832 73.56696909 62.95239832 74.8671875 64.81640625 C75.3324585 65.56647949 75.79772949 66.31655273 76.27709961 67.08935547 C76.80440674 67.90549316 77.33171387 68.72163086 77.875 69.5625 C79.00012806 71.36759895 80.12374628 73.17363961 81.24609375 74.98046875 C81.85437012 75.95032715 82.46264648 76.92018555 83.08935547 77.91943359 C86.45919915 83.35269293 89.69039615 88.86783362 92.9375 94.375 C93.62438138 95.53573665 94.31155655 96.69629949 94.99902344 97.85668945 C98.1458849 103.16844781 101.28665233 108.48374865 104.41796875 113.8046875 C104.95349365 114.71395996 105.48901855 115.62323242 106.04077148 116.56005859 C107.08667189 118.33594559 108.13177291 120.11230365 109.17602539 121.88916016 C112.04978963 126.76145791 114.9747805 131.59707417 117.953125 136.40625 C118.60716309 137.46553711 119.26120117 138.52482422 119.93505859 139.61621094 C121.20691046 141.6707655 122.48565392 143.72107334 123.77197266 145.76660156 C124.33964355 146.6840918 124.90731445 147.60158203 125.4921875 148.546875 C126.00120605 149.35995117 126.51022461 150.17302734 127.03466797 151.01074219 C127.35322754 151.66719727 127.67178711 152.32365234 128 153 C127.67 153.66 127.34 154.32 127 155 C96.14479553 157.64589484 96.14479553 157.64589484 88.5390625 153.734375 C84.90665263 150.15312584 83.52796472 145.51526308 82.00292969 140.74707031 C80.08071263 135.48202982 77.06049481 130.76804969 74.25 125.9375 C73.06069332 123.80902574 71.87452854 121.67879308 70.69140625 119.546875 C66.36850112 111.83129547 61.88552463 104.20996138 57.35449219 96.61499023 C56.51966309 95.20262085 56.51966309 95.20262085 55.66796875 93.76171875 C55.17578857 92.93631592 54.6836084 92.11091309 54.17651367 91.26049805 C53.07844518 89.15072087 52.45490227 87.3238341 52 85 C48.29430504 87.78089938 45.43919961 90.6871406 42.5625 94.3125 C38.1083632 99.8980991 38.1083632 99.8980991 36.48347473 101.42608643 C32.1269694 105.72035537 31.29076433 109.0735699 31.16775513 115.11143494 C31.18139603 116.63215355 31.18139603 116.63215355 31.1953125 118.18359375 C31.18160614 119.23909927 31.16789978 120.2946048 31.15377808 121.38209534 C31.11655909 124.73433367 31.12018781 128.08508481 31.125 131.4375 C31.1068677 133.71812203 31.08606335 135.99872449 31.0625 138.27929688 C31.00572151 143.85372839 31.00424816 149.42429451 31 155 C20.77 155 10.54 155 0 155 C0 103.85 0 52.7 0 0 Z " fill="#006B67" transform="translate(0,0)"/>
<path d="M0 0 C77.22 0 154.44 0 234 0 C234 10.56 234 21.12 234 32 C156.78 32 79.56 32 0 32 C0 21.44 0 10.88 0 0 Z " fill="#B1BA1B" transform="translate(0,184)"/>
<path d="M0 0 C15 0 15 0 21 3 C23.39356965 6.15515999 23.32237768 9.13146779 23 13 C21.6 16.7 21.6 16.7 19 18 C20.00443142 21.24508611 21.10301294 24.20602588 22.625 27.25 C24 30 24 30 24 32 C21.36 32 18.72 32 16 32 C15.16180842 30.37750059 14.3295884 28.75191503 13.5 27.125 C13.0359375 26.22007812 12.571875 25.31515625 12.09375 24.3828125 C11 22 11 22 11 20 C9.68 20 8.36 20 7 20 C7 23.96 7 27.92 7 32 C4.69 32 2.38 32 0 32 C0 21.44 0 10.88 0 0 Z M7 7 C7 9.31 7 11.62 7 14 C11.7897321 14.23428313 11.7897321 14.23428313 16 12 C15.50243908 9.24358584 15.50243908 9.24358584 14 7 C11.66702567 6.95907063 9.33294775 6.95758277 7 7 Z " fill="#006B67" transform="translate(187,230)"/>
<path d="M0 0 C1.98 0 3.96 0 6 0 C7.58272601 1.58272601 7.34735747 3.38034003 7.5625 5.5625 C7.64628906 6.38878906 7.73007813 7.21507812 7.81640625 8.06640625 C7.87699219 8.70449219 7.93757812 9.34257812 8 10 C8.4846875 9.278125 8.969375 8.55625 9.46875 7.8125 C14.87852238 0.32204594 14.87852238 0.32204594 18.3125 -0.6640625 C20.5 -0.625 20.5 -0.625 24 0 C22.65093622 4.45191048 20.33934817 6.924703 17.046875 10.05859375 C15.69459313 12.06513195 15.69459313 12.06513195 16.6015625 14.83203125 C18.06409191 18.14519145 19.73816628 21.15963036 21.625 24.25 C25 29.7877551 25 29.7877551 25 32 C19.97927461 33.05699482 19.97927461 33.05699482 17 32 C14.09197971 28.28208247 12.02480752 24.2520958 10 20 C9.34 20.33 8.68 20.66 8 21 C7.5316735 23.58605332 7.5316735 23.58605332 7.375 26.5625 C7.26285156 28.08037109 7.26285156 28.08037109 7.1484375 29.62890625 C7.09945313 30.41136719 7.05046875 31.19382812 7 32 C4.69 32 2.38 32 0 32 C0 21.44 0 10.88 0 0 Z " fill="#006B67" transform="translate(0,230)"/>
<path d="M0 0 C3.279375 -0.020625 6.55875 -0.04125 9.9375 -0.0625 C10.97253662 -0.071604 12.00757324 -0.08070801 13.07397461 -0.09008789 C14.28839233 -0.09383423 14.28839233 -0.09383423 15.52734375 -0.09765625 C16.77632446 -0.10551147 16.77632446 -0.10551147 18.05053711 -0.11352539 C20 0 20 0 21 1 C21 2.98 21 4.96 21 7 C16.38 7 11.76 7 7 7 C7 8.98 7 10.96 7 13 C10.96 13 14.92 13 19 13 C19 14.98 19 16.96 19 19 C15.04 19 11.08 19 7 19 C7 20.98 7 22.96 7 25 C11.62 25 16.24 25 21 25 C21 27.31 21 29.62 21 32 C14.07 32 7.14 32 0 32 C0 21.44 0 10.88 0 0 Z " fill="#006B67" transform="translate(83,230)"/>
<path d="M0 0 C1.2065625 0.0309375 1.2065625 0.0309375 2.4375 0.0625 C5.43992385 6.61792678 8.12970997 13.25974959 10.6875 20 C11.05101563 20.94423828 11.41453125 21.88847656 11.7890625 22.86132812 C12.13195312 23.76173828 12.47484375 24.66214844 12.828125 25.58984375 C13.13782227 26.40187256 13.44751953 27.21390137 13.76660156 28.05053711 C14.4375 30.0625 14.4375 30.0625 14.4375 32.0625 C11.7975 32.0625 9.1575 32.0625 6.4375 32.0625 C6.1075 30.0825 5.7775 28.1025 5.4375 26.0625 C0.4875 26.5575 0.4875 26.5575 -4.5625 27.0625 C-5.5525 29.5375 -5.5525 29.5375 -6.5625 32.0625 C-8.8725 32.0625 -11.1825 32.0625 -13.5625 32.0625 C-12.15937893 24.95139428 -10.02295149 18.35054837 -7.5 11.5625 C-7.13583984 10.5621875 -6.77167969 9.561875 -6.39648438 8.53125 C-3.2905146 0.08025645 -3.2905146 0.08025645 0 0 Z M-0.5625 13.0625 C-1.2225 15.3725 -1.8825 17.6825 -2.5625 20.0625 C-0.9125 20.0625 0.7375 20.0625 2.4375 20.0625 C2.09522428 17.09184491 2.09522428 17.09184491 1.4375 14.0625 C0.7775 13.7325 0.1175 13.4025 -0.5625 13.0625 Z " fill="#006B67" transform="translate(40.5625,229.9375)"/>
<path d="M0 0 C2.3125 -0.3125 2.3125 -0.3125 5 0 C7.56819078 3.2765537 8.86587894 6.99112746 10.26171875 10.88671875 C10.65810547 11.98951172 11.05449219 13.09230469 11.46289062 14.22851562 C12.06907227 15.94071289 12.06907227 15.94071289 12.6875 17.6875 C13.31108398 19.41709961 13.31108398 19.41709961 13.94726562 21.18164062 C17 29.72829433 17 29.72829433 17 32 C14.69 32 12.38 32 10 32 C9.34 30.02 8.68 28.04 8 26 C4.7 26 1.4 26 -2 26 C-2.66 27.98 -3.32 29.96 -4 32 C-6.31 32 -8.62 32 -11 32 C-8.51558509 20.9495295 -4.11999404 10.51748212 0 0 Z M3 13 C1.515 16.465 1.515 16.465 0 20 C1.98 20 3.96 20 6 20 C5.34 17.69 4.68 15.38 4 13 C3.67 13 3.34 13 3 13 Z " fill="#006B67" transform="translate(167,230)"/>
<path d="M0 0 C0.639375 0.495 1.27875 0.99 1.9375 1.5 C1.6075 2.82 1.2775 4.14 0.9375 5.5 C-2.88006824 6.87432457 -6.13505329 6.17975039 -10.0625 5.5 C-10.3925 6.82 -10.7225 8.14 -11.0625 9.5 C-9.92361328 9.75523437 -9.92361328 9.75523437 -8.76171875 10.015625 C-7.76785156 10.25796875 -6.77398437 10.5003125 -5.75 10.75 C-4.27080078 11.09804687 -4.27080078 11.09804687 -2.76171875 11.453125 C0.34761696 12.65906128 1.34780509 13.60145628 2.9375 16.5 C3.46520344 21.24933099 3.63954741 23.36219902 1.125 27.4375 C-2.69632357 31.04046222 -6.55700156 30.76357539 -11.54296875 30.734375 C-14.8605631 30.42576157 -17.2655576 29.26648994 -20.0625 27.5 C-19.8125 25.625 -19.8125 25.625 -19.0625 23.5 C-17.25 22.125 -17.25 22.125 -15.0625 21.5 C-13.72916667 22.16666667 -12.39583333 22.83333333 -11.0625 23.5 C-7.87727796 23.19196545 -7.87727796 23.19196545 -5.0625 22.5 C-4.7325 21.18 -4.4025 19.86 -4.0625 18.5 C-4.66578125 18.45101562 -5.2690625 18.40203125 -5.890625 18.3515625 C-6.68984375 18.27679688 -7.4890625 18.20203125 -8.3125 18.125 C-9.10140625 18.05539063 -9.8903125 17.98578125 -10.703125 17.9140625 C-13.20972596 17.47416233 -14.91072646 16.85175517 -17.0625 15.5 C-19.52178744 11.81106884 -19.75555579 8.78358579 -19.0625 4.5 C-14.7992928 -2.40933581 -7.10885372 -3.48188753 0 0 Z " fill="#006B67" transform="translate(76.0625,231.5)"/>
<path d="M0 0 C1.2375 0.7425 1.2375 0.7425 2.5 1.5 C1.0505618 5.24438202 1.0505618 5.24438202 -1.25 6.3125 C-4.13307728 6.55275644 -6.66982696 6.05372951 -9.5 5.5 C-10.16 5.5 -10.82 5.5 -11.5 5.5 C-11.38059914 7.47725705 -11.38059914 7.47725705 -10.5 9.5 C-8.28271679 10.53533079 -8.28271679 10.53533079 -5.625 11.0625 C-1.99787629 11.91376373 0.12356685 12.56308734 2.5 15.5 C4.2697805 19.03956101 3.5384695 22.7760616 2.5 26.5 C-0.2232741 29.43826942 -2.20675208 30.33716058 -6.16796875 30.8359375 C-11.36351544 31.01823738 -15.32714558 30.95339676 -19.5 27.5 C-19.25 25.625 -19.25 25.625 -18.5 23.5 C-16.6875 22.125 -16.6875 22.125 -14.5 21.5 C-13.16666667 22.16666667 -11.83333333 22.83333333 -10.5 23.5 C-7.31477796 23.19196545 -7.31477796 23.19196545 -4.5 22.5 C-4.5 21.51 -4.5 20.52 -4.5 19.5 C-5.17546875 19.32984375 -5.8509375 19.1596875 -6.546875 18.984375 C-16.27617329 16.34115523 -16.27617329 16.34115523 -18.5 12.5 C-19.03868637 9.39395732 -19.07598772 6.60234971 -18.5 3.5 C-13.97410981 -2.74260717 -6.61721324 -2.83594853 0 0 Z " fill="#006B67" transform="translate(151.5,231.5)"/>
<path d="M0 0 C1.40958984 -0.00193359 1.40958984 -0.00193359 2.84765625 -0.00390625 C3.83636719 -0.00003906 4.82507813 0.00382813 5.84375 0.0078125 C7.32681641 0.00201172 7.32681641 0.00201172 8.83984375 -0.00390625 C9.77957031 -0.00261719 10.71929687 -0.00132812 11.6875 0 C12.55568359 0.00112793 13.42386719 0.00225586 14.31835938 0.00341797 C16.34375 0.1328125 16.34375 0.1328125 17.34375 1.1328125 C17.38455783 3.13239614 17.38629356 5.13326504 17.34375 7.1328125 C14.70375 7.1328125 12.06375 7.1328125 9.34375 7.1328125 C9.34375 15.3828125 9.34375 23.6328125 9.34375 32.1328125 C7.03375 32.1328125 4.72375 32.1328125 2.34375 32.1328125 C2.34375 23.8828125 2.34375 15.6328125 2.34375 7.1328125 C-0.29625 7.1328125 -2.93625 7.1328125 -5.65625 7.1328125 C-5.69879356 5.13326504 -5.69705783 3.13239614 -5.65625 1.1328125 C-4.03424485 -0.48919265 -2.23601969 0.002905 0 0 Z " fill="#006B67" transform="translate(112.65625,229.8671875)"/>
<path d="M0 0 C0.87454834 0.00523682 1.74909668 0.01047363 2.65014648 0.01586914 C3.59438477 0.0190918 4.53862305 0.02231445 5.51147461 0.02563477 C6.50469727 0.03401367 7.49791992 0.04239258 8.52124023 0.05102539 C9.51833008 0.05553711 10.51541992 0.06004883 11.54272461 0.06469727 C14.01478872 0.07652532 16.48673541 0.0930069 18.95874023 0.11352539 C18.95874023 2.42352539 18.95874023 4.73352539 18.95874023 7.11352539 C16.64874023 7.11352539 14.33874023 7.11352539 11.95874023 7.11352539 C11.95874023 15.36352539 11.95874023 23.61352539 11.95874023 32.11352539 C9.64874023 32.11352539 7.33874023 32.11352539 4.95874023 32.11352539 C4.95874023 23.86352539 4.95874023 15.61352539 4.95874023 7.11352539 C2.31874023 7.11352539 -0.32125977 7.11352539 -3.04125977 7.11352539 C-3.08380333 5.11397793 -3.08206759 3.11310903 -3.04125977 1.11352539 C-2.04125977 0.11352539 -2.04125977 0.11352539 0 0 Z " fill="#006B67" transform="translate(216.041259765625,229.886474609375)"/>
<path d="M0 0 C4.59307555 1.14826889 4.83814562 1.66265153 7.234375 5.47265625 C7.80800781 6.37177734 8.38164063 7.27089844 8.97265625 8.19726562 C9.55917969 9.14279297 10.14570312 10.08832031 10.75 11.0625 C11.35199219 12.01189453 11.95398438 12.96128906 12.57421875 13.93945312 C14.06013422 16.28625612 15.531466 18.6422814 17 21 C17.33 14.07 17.66 7.14 18 0 C18.99 0 19.98 0 21 0 C21 9.57 21 19.14 21 29 C19.68 29 18.36 29 17 29 C15.29386025 26.80724997 13.90068928 24.75091321 12.5 22.375 C11.74000662 21.13255348 10.97959325 19.89036376 10.21875 18.6484375 C9.88810547 18.09333496 9.55746094 17.53823242 9.21679688 16.96630859 C7.54650692 14.26716829 5.76070151 11.64105227 4 9 C3.67 15.6 3.34 22.2 3 29 C2.01 29 1.02 29 0 29 C0 19.43 0 9.86 0 0 Z " fill="#006B67" transform="translate(30,271)"/>
<path d="M0 0 C13 0 13 0 18 2 C20.16719206 4.6597357 19.99534863 6.08837596 19.8125 9.5625 C18.72963605 14.14384749 18.72963605 14.14384749 16 16 C15.34 16 14.68 16 14 16 C14.433125 16.77085937 14.86625 17.54171875 15.3125 18.3359375 C15.869375 19.33882813 16.42625 20.34171875 17 21.375 C17.556875 22.37273437 18.11375 23.37046875 18.6875 24.3984375 C20 27 20 27 20 29 C18.68 29 17.36 29 16 29 C15.47212891 27.82630859 15.47212891 27.82630859 14.93359375 26.62890625 C12.49330654 20.94188753 12.49330654 20.94188753 8.04296875 17.046875 C5.92854386 16.72992304 5.92854386 16.72992304 3 17 C3 20.96 3 24.92 3 29 C2.01 29 1.02 29 0 29 C0 19.43 0 9.86 0 0 Z M3 3 C3 6.63 3 10.26 3 14 C7.16021408 14.21153631 10.08997426 14.34125965 14 12.875 C16.34484335 11.08964481 16.34484335 11.08964481 16.3125 7.8125 C16.209375 6.884375 16.10625 5.95625 16 5 C11.57669127 2.42311831 8.0308706 2.85203322 3 3 Z " fill="#006B67" transform="translate(125,271)"/>
<path d="M0 0 C5.94 0 11.88 0 18 0 C18 0.99 18 1.98 18 3 C13.05 3 8.1 3 3 3 C3 6.3 3 9.6 3 13 C7.29 13 11.58 13 16 13 C16 13.99 16 14.98 16 16 C11.71 16 7.42 16 3 16 C3 19.3 3 22.6 3 26 C7.95 26 12.9 26 18 26 C18 26.99 18 27.98 18 29 C12.06 29 6.12 29 0 29 C0 19.43 0 9.86 0 0 Z " fill="#006B67" transform="translate(99,271)"/>
<path d="M0 0 C2.9375 1.5 2.9375 1.5 5 3 C4.01 3.99 3.02 4.98 2 6 C1.01 5.34 0.02 4.68 -1 4 C-4.04195427 3.66659529 -4.04195427 3.66659529 -7 4 C-7.66 4.66 -8.32 5.32 -9 6 C-8.67958603 8.60280568 -8.67958603 8.60280568 -8 11 C-7.154375 11.268125 -6.30875 11.53625 -5.4375 11.8125 C4.64835165 15.2967033 4.64835165 15.2967033 6 18 C6.57684779 24.22995615 6.57684779 24.22995615 4.35546875 27.1953125 C1.38721672 29.46949565 -0.29321859 29.53706781 -4 29.5 C-5.546875 29.51546875 -5.546875 29.51546875 -7.125 29.53125 C-10.60212971 28.8887369 -11.78495822 27.68360831 -14 25 C-13.01 24.34 -12.02 23.68 -11 23 C-10.154375 23.515625 -9.30875 24.03125 -8.4375 24.5625 C-4.41263214 26.24562656 -2.19785702 25.92352855 2 25 C1.67 22.69 1.34 20.38 1 18 C0.24074219 17.81824219 -0.51851562 17.63648438 -1.30078125 17.44921875 C-2.29464844 17.19785156 -3.28851563 16.94648438 -4.3125 16.6875 C-5.29863281 16.44386719 -6.28476563 16.20023437 -7.30078125 15.94921875 C-10.04547295 14.98400879 -11.30541738 14.33501017 -13 12 C-13.40439513 8.29304466 -13.5094482 5.92185865 -11.6875 2.625 C-8.29768523 -0.63926607 -4.46102328 -0.30765678 0 0 Z " fill="#006B67" transform="translate(165,271)"/>
<path d="M0 0 C0.99 0 1.98 0 3 0 C3.00410889 0.68102783 3.00821777 1.36205566 3.01245117 2.0637207 C3.04533323 5.14753206 3.11596953 8.22935326 3.1875 11.3125 C3.19330078 12.38435547 3.19910156 13.45621094 3.20507812 14.56054688 C3.23408203 15.58857422 3.26308594 16.61660156 3.29296875 17.67578125 C3.3086792 18.62364502 3.32438965 19.57150879 3.34057617 20.5480957 C3.79744064 23.21712985 3.79744064 23.21712985 6.3371582 24.85229492 C9.64809679 26.27933465 11.55962653 25.88009554 15 25 C15.72413373 21.68856994 16.16354255 18.52155779 16.31640625 15.13671875 C16.35830078 14.25048828 16.40019531 13.36425781 16.44335938 12.45117188 C16.48267578 11.53916016 16.52199219 10.62714844 16.5625 9.6875 C16.60568359 8.75615234 16.64886719 7.82480469 16.69335938 6.86523438 C16.79897225 4.57695546 16.90107752 2.28857628 17 0 C17.99 0 18.98 0 20 0 C20.08741124 3.56234428 20.14052896 7.12441108 20.1875 10.6875 C20.21263672 11.69490234 20.23777344 12.70230469 20.26367188 13.74023438 C20.35545986 23.01082132 20.35545986 23.01082132 17 27 C14.52964288 29.47035712 13.6039993 29.35042281 10.1875 29.4375 C8.90939453 29.49744141 8.90939453 29.49744141 7.60546875 29.55859375 C3.55661341 28.6905483 2.33054641 27.44191017 0 24 C-0.60777374 19.87795521 -0.47034215 15.84239104 -0.3125 11.6875 C-0.28994141 10.56537109 -0.26738281 9.44324219 -0.24414062 8.28710938 C-0.18533776 5.52337464 -0.10320401 2.76237446 0 0 Z " fill="#006B67" transform="translate(0,271)"/>
<path d="M0 0 C1.87988281 0.22045898 1.87988281 0.22045898 4 1 C5.09667969 2.94946289 5.09667969 2.94946289 5.921875 5.47265625 C6.19612305 6.28226807 6.47037109 7.09187988 6.75292969 7.92602539 C7.08196289 8.96106201 7.41099609 9.99609863 7.75 11.0625 C8.8225 14.341875 9.895 17.62125 11 21 C13.31 14.07 15.62 7.14 18 0 C18.99 0 19.98 0 21 0 C20.35240405 6.23419035 18.63490411 11.93072245 16.6875 17.875 C16.39166016 18.83664062 16.09582031 19.79828125 15.79101562 20.7890625 C15.49259766 21.70171875 15.19417969 22.614375 14.88671875 23.5546875 C14.62076904 24.38468262 14.35481934 25.21467773 14.08081055 26.06982422 C13 28 13 28 10.88208008 28.77783203 C10.26099365 28.85114746 9.63990723 28.92446289 9 29 C7.71443334 25.19268645 6.43278817 21.38407809 5.15478516 17.57421875 C4.71934244 16.27795677 4.28282408 14.98205562 3.84521484 13.68652344 C3.21690673 11.82581959 2.59276741 9.96370969 1.96875 8.1015625 C1.59169922 6.98088379 1.21464844 5.86020508 0.82617188 4.70556641 C0 2 0 2 0 0 Z " fill="#006B67" transform="translate(71,271)"/>
<path d="M0 0 C1.796875 0.15234375 1.796875 0.15234375 4 1 C6.37725456 4.4950004 8.08719229 8.21785747 10 12 C11.98 8.04 13.96 4.08 16 0 C17.32 0 18.64 0 20 0 C18.87572849 4.1598046 17.1443739 7.46804589 14.9375 11.125 C11.61049546 17.00999343 11.02332277 22.31802605 11 29 C10.01 29 9.02 29 8 29 C8.00902344 28.22398437 8.01804688 27.44796875 8.02734375 26.6484375 C7.79060291 18.02283643 5.59965058 12.17507364 1.49609375 4.80078125 C0 2 0 2 0 0 Z " fill="#006B67" transform="translate(213,271)"/>
<path d="M0 0 C6.6 0 13.2 0 20 0 C20 0.99 20 1.98 20 3 C17.03 3 14.06 3 11 3 C11 11.58 11 20.16 11 29 C10.01 29 9.02 29 8 29 C8 20.42 8 11.84 8 3 C5.36 3 2.72 3 0 3 C0 2.01 0 1.02 0 0 Z " fill="#006B67" transform="translate(190,271)"/>
<path d="M0 0 C1.32 0 2.64 0 4 0 C4 9.57 4 19.14 4 29 C2.68 29 1.36 29 0 29 C0 19.43 0 9.86 0 0 Z " fill="#006B67" transform="translate(179,271)"/>
<path d="M0 0 C0.99 0 1.98 0 3 0 C3 9.57 3 19.14 3 29 C1.68 29 0.36 29 -1 29 C-1.02465881 25.03069011 -1.04284023 21.06140966 -1.05493164 17.09204102 C-1.05997057 15.74079614 -1.06680177 14.38955674 -1.07543945 13.03833008 C-1.08752419 11.09979566 -1.09269828 9.161222 -1.09765625 7.22265625 C-1.10289307 6.05484619 -1.10812988 4.88703613 -1.11352539 3.68383789 C-1 1 -1 1 0 0 Z " fill="#006B67" transform="translate(62,271)"/>
</svg>
